<svg id="mobile-logo" width="40" height="40"  aria-hidden="true" version="1.1" xmlns="http://www.w3.org/2000/svg" xmlns:xlink="http://www.w3.org/1999/xlink" x="0px" y="0px" viewBox="0 0 149.18 92.34" style="enable-background:new 0 0 149.18 92.34" xml:space="preserve"><g><path style="fill:#fff" d="M43.96,56.4c0-3.08,0.82-4.83,2.57-6.17c1.54-1.23,3.81-1.34,9.05-4.11c0,2.26-0.1,5.14-0.1,9.77
                                c0,5.55-3.19,7.61-6.68,7.61C45.71,63.5,43.96,60.83,43.96,56.4z M44.27,35.02c0.1-4.83,1.44-7.61,6.07-7.61
                                c3.7,0,5.24,2.16,5.24,5.55c0,4.21-0.93,5.04-5.96,6.37c-4.63,1.24-10.8,2.26-14.91,4.52c-4.11,2.26-6.79,7.71-6.79,14.19
                                c0,12.03,5.45,16.97,14.81,16.97c5.55,0,10.8-2.88,13.06-7.82h0.21c0.1,2.16,0.31,4.42,0.93,6.38h16.04C71,71.11,71,65.76,71,61.55
                                V32.96c0-11.72-6.07-16.45-19.74-16.45c-6.89,0-11.62,0.92-15.53,3.6c-3.91,2.67-6.17,7.3-6.27,14.91H44.27z"></path><path style="fill:#fff" d="M95.69,55.89c0.1,2.47,0.31,4.63,1.13,6.27c0.93,1.54,2.47,2.57,5.14,2.57c3.91,0,5.96-2.47,5.96-5.66
                                c0-2.57-1.24-5.04-6.38-6.79c-13.68-4.63-20.26-7.3-20.26-19.02c0-11.11,7.81-16.76,21.18-16.76c15.63,0,20.15,7.61,20.15,15.63
                                v1.85h-14.81v-1.03c0-4.83-1.95-6.17-5.45-6.17c-4.42,0-5.65,2.16-5.65,5.14c0,9.87,26.63,3.29,26.63,24.88
                                c0,11.21-7.51,18.2-21.28,18.2c-14.91,0-21.18-5.55-21.18-16.66v-2.47H95.69z"></path><path style="fill:#fff" d="M0,0h26.01v11.52H15.42v69.3h10.59v11.52H0V0z"></path><path style="fill:#fff" d="M123.16,80.82h10.59V11.52h-10.59V0h26.02v92.34h-26.02V80.82z"></path></g></svg>